<?xml version="1.0" standalone="no"?><svg xmlns="http://www.w3.org/2000/svg" viewBox="0 0 1440 320"><path fill="#3c31dd" fill-opacity="1" d="M0,160L26.7,154.7C53.3,149,107,139,160,122.7C213.3,107,267,85,320,90.7C373.3,96,427,128,480,138.7C533.3,149,587,139,640,149.3C693.3,160,747,192,800,202.7C853.3,213,907,203,960,186.7C1013.3,171,1067,149,1120,144C1173.3,139,1227,149,1280,138.7C1333.3,128,1387,96,1413,80L1440,64L1440,320L1413.3,320C1386.7,320,1333,320,1280,320C1226.7,320,1173,320,1120,320C1066.7,320,1013,320,960,320C906.7,320,853,320,800,320C746.7,320,693,320,640,320C586.7,320,533,320,480,320C426.7,320,373,320,320,320C266.7,320,213,320,160,320C106.7,320,53,320,27,320L0,320Z"></path></svg>